<mxfile host="app.diagrams.net" modified="2021-11-16T08:16:13.937Z" agent="5.0 (Windows NT 10.0; Win64; x64) AppleWebKit/537.36 (KHTML, like Gecko) Chrome/95.0.4638.69 Safari/537.36" etag="js9YcSbseCbJCui6nRv_" version="15.7.4" type="github">
  <diagram id="NUbeFStLYzgDWYR591D9" name="Page-1">
    <mxGraphModel dx="1422" dy="762" grid="1" gridSize="10" guides="1" tooltips="1" connect="1" arrows="1" fold="1" page="1" pageScale="1" pageWidth="827" pageHeight="1169" math="0" shadow="0">
      <root>
        <mxCell id="0" />
        <mxCell id="1" parent="0" />
        <mxCell id="ONrIjqLx-ytYppj2vQuP-6" value="" style="strokeWidth=2;html=1;shape=mxgraph.flowchart.annotation_2;align=left;labelPosition=right;pointerEvents=1;direction=south;" vertex="1" parent="1">
          <mxGeometry x="324" y="135" width="180" height="90" as="geometry" />
        </mxCell>
        <mxCell id="ONrIjqLx-ytYppj2vQuP-7" value="业务字典功能接口" style="whiteSpace=wrap;html=1;rounded=1;arcSize=50;align=center;verticalAlign=middle;strokeWidth=1;autosize=1;spacing=4;treeFolding=1;treeMoving=1;newEdgeStyle={&quot;edgeStyle&quot;:&quot;entityRelationEdgeStyle&quot;,&quot;startArrow&quot;:&quot;none&quot;,&quot;endArrow&quot;:&quot;none&quot;,&quot;segment&quot;:10,&quot;curved&quot;:1};direction=west;" vertex="1" parent="1">
          <mxGeometry x="100" y="230" width="134" height="32" as="geometry" />
        </mxCell>
        <mxCell id="ONrIjqLx-ytYppj2vQuP-9" value="业务字典功能接口" style="whiteSpace=wrap;html=1;rounded=1;arcSize=50;align=center;verticalAlign=middle;strokeWidth=1;autosize=1;spacing=4;treeFolding=1;treeMoving=1;newEdgeStyle={&quot;edgeStyle&quot;:&quot;entityRelationEdgeStyle&quot;,&quot;startArrow&quot;:&quot;none&quot;,&quot;endArrow&quot;:&quot;none&quot;,&quot;segment&quot;:10,&quot;curved&quot;:1};direction=west;" vertex="1" parent="1">
          <mxGeometry x="100" y="290" width="134" height="32" as="geometry" />
        </mxCell>
        <mxCell id="ONrIjqLx-ytYppj2vQuP-10" value="" style="endArrow=none;html=1;rounded=0;exitX=0;exitY=0.5;exitDx=0;exitDy=0;entryX=0;entryY=0;entryDx=0;entryDy=63.5;entryPerimeter=0;" edge="1" parent="1" source="ONrIjqLx-ytYppj2vQuP-9">
          <mxGeometry width="50" height="50" relative="1" as="geometry">
            <mxPoint x="390" y="410" as="sourcePoint" />
            <mxPoint x="294" y="293.5" as="targetPoint" />
          </mxGeometry>
        </mxCell>
        <mxCell id="ONrIjqLx-ytYppj2vQuP-12" value="" style="endArrow=none;html=1;rounded=0;exitX=0;exitY=0.5;exitDx=0;exitDy=0;entryX=0;entryY=0;entryDx=0;entryDy=30.5;entryPerimeter=0;" edge="1" parent="1" source="ONrIjqLx-ytYppj2vQuP-7">
          <mxGeometry width="50" height="50" relative="1" as="geometry">
            <mxPoint x="390" y="410" as="sourcePoint" />
            <mxPoint x="294" y="260.5" as="targetPoint" />
          </mxGeometry>
        </mxCell>
        <mxCell id="ONrIjqLx-ytYppj2vQuP-13" value="" style="endArrow=none;html=1;rounded=0;" edge="1" parent="1">
          <mxGeometry width="50" height="50" relative="1" as="geometry">
            <mxPoint x="504" y="380" as="sourcePoint" />
            <mxPoint x="504" y="310" as="targetPoint" />
          </mxGeometry>
        </mxCell>
        <mxCell id="ONrIjqLx-ytYppj2vQuP-15" value="ec-dict【字典模块】" style="shape=module;align=left;spacingLeft=20;align=center;verticalAlign=middle;" vertex="1" parent="1">
          <mxGeometry x="280" y="225" width="120" height="95" as="geometry" />
        </mxCell>
        <mxCell id="ONrIjqLx-ytYppj2vQuP-32" value="" style="edgeStyle=orthogonalEdgeStyle;rounded=0;orthogonalLoop=1;jettySize=auto;html=1;" edge="1" parent="1" source="ONrIjqLx-ytYppj2vQuP-17" target="ONrIjqLx-ytYppj2vQuP-24">
          <mxGeometry relative="1" as="geometry" />
        </mxCell>
        <mxCell id="ONrIjqLx-ytYppj2vQuP-17" value="business【业务模块】" style="shape=module;align=left;spacingLeft=20;align=center;verticalAlign=middle;" vertex="1" parent="1">
          <mxGeometry x="460" y="225" width="130" height="95" as="geometry" />
        </mxCell>
        <mxCell id="ONrIjqLx-ytYppj2vQuP-34" value="" style="edgeStyle=orthogonalEdgeStyle;rounded=0;orthogonalLoop=1;jettySize=auto;html=1;" edge="1" parent="1" source="ONrIjqLx-ytYppj2vQuP-19" target="ONrIjqLx-ytYppj2vQuP-25">
          <mxGeometry relative="1" as="geometry" />
        </mxCell>
        <mxCell id="ONrIjqLx-ytYppj2vQuP-19" value="baseServer【基础模块】" style="shape=module;align=left;spacingLeft=20;align=center;verticalAlign=middle;" vertex="1" parent="1">
          <mxGeometry x="460" y="380" width="140" height="90" as="geometry" />
        </mxCell>
        <mxCell id="ONrIjqLx-ytYppj2vQuP-24" value="复杂逻辑处理&lt;br&gt;eg：多表关联查询" style="shape=note;size=20;whiteSpace=wrap;html=1;align=left;verticalAlign=middle;" vertex="1" parent="1">
          <mxGeometry x="670" y="227.5" width="90" height="90" as="geometry" />
        </mxCell>
        <mxCell id="ONrIjqLx-ytYppj2vQuP-25" value="简单功能接口=&amp;gt;单表操作" style="shape=note;size=20;whiteSpace=wrap;html=1;align=left;verticalAlign=middle;" vertex="1" parent="1">
          <mxGeometry x="670" y="380" width="90" height="90" as="geometry" />
        </mxCell>
        <mxCell id="ONrIjqLx-ytYppj2vQuP-35" value="" style="edgeStyle=orthogonalEdgeStyle;rounded=0;orthogonalLoop=1;jettySize=auto;html=1;" edge="1" parent="1" source="ONrIjqLx-ytYppj2vQuP-29" target="ONrIjqLx-ytYppj2vQuP-30">
          <mxGeometry relative="1" as="geometry" />
        </mxCell>
        <mxCell id="ONrIjqLx-ytYppj2vQuP-29" value="ec-manage-web" style="ellipse;whiteSpace=wrap;html=1;align=center;" vertex="1" parent="1">
          <mxGeometry x="344" y="65" width="140" height="70" as="geometry" />
        </mxCell>
        <mxCell id="ONrIjqLx-ytYppj2vQuP-30" value="Controller控制层-供前端调用" style="shape=note;size=20;whiteSpace=wrap;html=1;align=left;verticalAlign=middle;" vertex="1" parent="1">
          <mxGeometry x="670" y="55" width="90" height="90" as="geometry" />
        </mxCell>
      </root>
    </mxGraphModel>
  </diagram>
</mxfile>
